<?xml version="1.0" standalone="no"?>
<!DOCTYPE svg PUBLIC "-//W3C//DTD SVG 20010904//EN"
 "http://www.w3.org/TR/2001/REC-SVG-20010904/DTD/svg10.dtd">
<svg version="1.0" xmlns="http://www.w3.org/2000/svg"
 width="565.000000pt" height="442.000000pt" viewBox="0 0 565.000000 442.000000"
 preserveAspectRatio="xMidYMid meet">

<g transform="translate(0.000000,442.000000) scale(0.100000,-0.100000)"
fill="#000000" stroke="none">
<path d="M2669 3946 c-53 -15 -132 -57 -169 -89 -14 -12 -47 -48 -74 -80 -44
-51 -55 -59 -120 -78 -270 -78 -487 -206 -711 -417 -79 -75 -155 -162 -166
-189 -5 -13 -13 -23 -18 -23 -17 0 -128 -172 -186 -288 -82 -162 -117 -266
-109 -319 9 -60 44 -99 104 -117 67 -20 104 -8 215 69 171 118 319 193 468
234 94 27 255 43 335 35 57 -6 65 -9 74 -33 50 -129 90 -172 196 -214 59 -23
78 -41 108 -98 13 -27 69 -92 134 -155 135 -132 194 -204 251 -308 53 -95 104
-155 164 -193 44 -27 75 -73 75 -110 0 -74 78 -186 156 -222 l46 -22 -7 -67
c-4 -37 -23 -114 -42 -172 -66 -199 -168 -361 -342 -543 -121 -125 -131 -140
-131 -192 0 -87 59 -145 149 -145 103 0 335 63 506 138 107 46 328 179 423
255 166 131 371 370 472 550 25 45 43 63 79 82 104 54 201 158 243 263 21 53
23 74 26 320 4 320 -2 350 -98 483 -67 92 -66 89 -35 199 21 72 21 221 1 289
-18 62 -67 160 -104 210 -28 37 -232 285 -336 405 -159 187 -284 246 -524 250
l-133 3 -77 81 c-97 102 -145 125 -330 158 -75 14 -184 34 -241 44 -116 23
-204 24 -272 6z m426 -116 c140 -29 219 -50 264 -72 70 -34 141 -98 141 -127
0 -11 -20 -34 -48 -54 -52 -38 -107 -98 -415 -443 -113 -128 -247 -276 -298
-330 -94 -101 -139 -176 -153 -257 -11 -60 -56 -62 -121 -5 -70 61 -81 111
-66 311 6 78 15 257 21 397 14 312 23 386 54 448 40 79 130 148 223 172 63 16
187 3 398 -40z m-754 -481 c-23 -551 -24 -569 -36 -579 -7 -6 -62 -13 -122
-15 -195 -7 -391 -51 -545 -123 -72 -34 -170 -96 -297 -188 -68 -48 -147 -20
-144 53 1 50 67 198 167 373 157 277 419 518 715 657 196 93 246 112 259 98
11 -10 12 -59 3 -276z m1544 215 c65 -16 162 -68 211 -111 51 -46 403 -463
446 -530 67 -103 93 -260 63 -384 -35 -147 -79 -202 -225 -287 -145 -84 -590
-349 -640 -381 -281 -180 -340 -201 -460 -165 -42 12 -67 29 -116 78 -34 34
-73 85 -87 113 -46 90 -146 211 -247 298 -128 110 -162 166 -168 277 -7 115
22 168 186 340 70 74 204 219 297 323 234 261 352 379 400 400 107 47 232 58
340 29z m757 -1291 c80 -86 103 -201 95 -479 -8 -245 -23 -297 -110 -391 -61
-65 -105 -90 -194 -113 -54 -14 -17 -18 -583 60 -113 16 -241 32 -285 35 -44
4 -96 11 -115 16 -49 12 -96 64 -120 133 -25 69 -17 87 34 79 39 -6 139 18
198 48 24 12 97 56 163 99 121 77 269 167 490 297 66 39 163 96 216 127 53 31
109 70 124 86 36 37 54 38 87 3z m-797 -1004 c121 -16 285 -39 365 -50 79 -10
149 -24 154 -29 13 -13 -18 -78 -89 -184 -150 -224 -403 -435 -695 -577 -83
-40 -289 -106 -404 -130 -121 -25 -166 -17 -185 30 -20 47 -4 77 74 141 139
113 244 249 334 427 55 110 85 194 106 289 24 111 24 112 43 117 20 4 15 5
297 -34z"/>
<path d="M1875 2383 c-16 -39 -22 -113 -11 -131 3 -6 32 -18 64 -27 31 -8 89
-27 127 -42 497 -187 778 -536 750 -935 -4 -54 -5 -98 -2 -98 7 0 55 142 62
185 4 22 7 78 6 125 -3 384 -343 756 -843 924 -59 20 -114 36 -123 36 -8 0
-22 -17 -30 -37z"/>
<path d="M1320 2143 c1 -132 63 -403 124 -538 l22 -50 160 -1 c181 -1 268 -15
439 -71 311 -102 521 -284 594 -514 7 -21 43 -72 81 -115 38 -44 70 -82 70
-86 0 -9 -23 -12 -55 -8 -11 1 -29 4 -40 5 -11 1 -30 3 -41 4 -41 2 -64 33
-88 121 -54 195 -198 351 -426 458 -311 146 -635 158 -910 33 -108 -49 -394
-223 -443 -270 -47 -44 -45 -67 13 -146 49 -66 196 -240 265 -314 202 -215
486 -322 815 -308 224 10 384 59 516 159 48 36 73 64 158 180 34 48 55 53 146
33 123 -26 253 -46 267 -41 7 3 13 14 13 26 0 14 -14 26 -47 42 -67 31 -192
158 -228 232 l-28 58 11 107 c38 369 -159 680 -562 885 -92 47 -267 107 -381
130 -95 20 -259 36 -361 36 l-84 0 0 -47z m535 -772 c127 -24 211 -53 300
-102 192 -105 307 -250 336 -424 12 -71 12 -71 -20 -132 -68 -127 -203 -225
-376 -273 -140 -39 -423 -29 -570 21 -195 66 -297 148 -521 419 -88 106 -107
141 -95 173 26 68 394 277 558 316 109 26 262 27 388 2z"/>
<path d="M1802 1298 c-70 -18 -83 -105 -22 -146 28 -19 44 -23 83 -19 57 5 76
20 84 70 5 32 2 40 -26 66 -34 32 -71 41 -119 29z"/>
<path d="M1503 1280 c-68 -41 -31 -101 65 -108 66 -4 87 8 96 53 14 68 -85
102 -161 55z"/>
<path d="M1301 1231 c-11 -11 -18 -27 -15 -35 8 -20 55 -29 88 -16 22 8 27 15
24 38 -3 23 -8 27 -40 30 -27 2 -43 -3 -57 -17z"/>
<path d="M2060 1202 c-29 -9 -50 -35 -50 -62 0 -34 24 -55 78 -70 81 -21 132
13 102 69 -18 35 -97 74 -130 63z"/>
<path d="M1238 1105 c-28 -16 -41 -47 -53 -136 -7 -51 11 -101 40 -113 32 -12
82 -6 98 12 37 41 50 197 19 225 -27 24 -73 29 -104 12z"/>
<path d="M1456 1077 c-24 -24 -48 -126 -48 -205 0 -48 46 -92 96 -92 72 0 103
52 122 205 6 47 4 53 -24 83 -25 27 -37 32 -76 32 -36 0 -52 -6 -70 -23z"/>
<path d="M1047 1069 c-28 -16 -37 -50 -21 -81 27 -52 86 -45 98 13 8 43 8 46
-10 63 -18 18 -41 20 -67 5z"/>
<path d="M1739 1057 c-40 -27 -57 -77 -66 -194 -6 -81 -6 -82 25 -112 26 -26
38 -31 79 -31 27 0 58 7 70 15 28 19 50 93 59 190 8 87 -6 117 -61 141 -47 19
-67 18 -106 -9z"/>
<path d="M2266 1064 c-21 -21 -20 -30 6 -48 30 -21 78 -21 78 -1 0 17 -43 65
-59 65 -5 0 -17 -7 -25 -16z"/>
<path d="M2025 998 c-38 -22 -47 -45 -69 -185 -15 -96 89 -162 159 -100 40 34
70 201 45 248 -22 41 -94 60 -135 37z"/>
<path d="M2268 925 c-16 -9 -28 -17 -28 -18 0 -1 -7 -37 -15 -80 -13 -69 -13
-82 0 -106 24 -48 85 -51 132 -9 27 25 48 114 34 149 -24 63 -76 90 -123 64z"/>
<path d="M1220 781 c-21 -14 -2 -58 33 -79 31 -19 60 -8 65 25 5 36 -65 75
-98 54z"/>
<path d="M1382 698 c-40 -40 40 -128 116 -128 32 0 58 23 66 60 7 28 1 39 -34
63 -29 20 -130 23 -148 5z"/>
<path d="M1655 635 c-34 -33 -34 -83 0 -115 18 -17 40 -25 80 -28 48 -4 59 -1
80 18 49 46 25 121 -43 140 -59 16 -91 12 -117 -15z"/>
<path d="M1948 634 c-27 -8 -41 -73 -23 -101 40 -60 185 -28 185 42 0 38 -104
76 -162 59z"/>
<path d="M2197 623 c-13 -3 -17 -12 -15 -31 4 -35 44 -41 78 -14 21 17 22 22
11 36 -13 16 -37 19 -74 9z"/>
</g>
</svg>
