<?xml version="1.0" standalone="no"?>
<!DOCTYPE svg PUBLIC "-//W3C//DTD SVG 20010904//EN"
 "http://www.w3.org/TR/2001/REC-SVG-20010904/DTD/svg10.dtd">
<svg version="1.0" xmlns="http://www.w3.org/2000/svg"
 width="1033.000000pt" height="183.000000pt" viewBox="0 0 1033.000000 183.000000"
 preserveAspectRatio="xMidYMid meet">

<g transform="translate(0.000000,183.000000) scale(0.100000,-0.100000)"
fill="#000000" stroke="none">
<path d="M6447 1652 c-10 -10 -14 -22 -10 -25 3 -4 1 -7 -5 -7 -15 0 -16 -45
-2 -71 6 -10 17 -19 25 -19 8 0 18 -12 21 -27 8 -30 -9 -290 -19 -300 -4 -3
-35 8 -69 26 -49 24 -81 33 -145 38 -108 8 -157 -10 -202 -72 -65 -91 -107
-219 -81 -250 10 -13 10 -19 -4 -34 -16 -18 -16 -20 8 -44 25 -25 38 -85 15
-71 -25 15 24 -57 54 -80 89 -68 147 -69 272 -6 43 22 79 39 80 37 1 -1 6 -24
11 -52 l9 -50 70 -1 c39 -1 78 3 88 8 27 14 21 46 -14 64 l-31 16 7 71 c8 81
11 147 20 354 3 78 9 153 14 166 12 30 16 262 6 300 -12 46 -87 64 -118 29z
m70 -78 c-3 -3 -12 -4 -19 -1 -8 3 -5 6 6 6 11 1 17 -2 13 -5z m-232 -344 c4
-6 -5 -10 -19 -10 -14 0 -26 5 -26 10 0 6 9 10 19 10 11 0 23 -4 26 -10z
m-167 -12 c-6 -16 -36 -34 -44 -25 -9 9 15 37 33 37 8 0 13 -5 11 -12z m255
-15 c-7 -2 -19 -2 -25 0 -7 3 -2 5 12 5 14 0 19 -2 13 -5z m-306 -49 c-15 -14
-29 -35 -32 -45 -4 -10 -11 -19 -16 -19 -23 0 5 64 35 78 36 18 40 13 13 -14z
m290 -10 c3 -8 11 -14 19 -14 8 0 14 -5 14 -11 0 -5 5 -7 10 -4 6 3 10 -3 10
-14 0 -12 5 -21 10 -21 16 0 12 -112 -6 -165 -17 -47 -60 -95 -110 -123 -13
-7 -21 -18 -18 -26 7 -17 -70 -33 -89 -18 -7 5 -36 12 -66 14 -61 6 -80 23
-105 96 -14 39 -14 52 0 115 15 73 47 149 72 169 31 26 249 28 259 2z m48 16
c3 -5 1 -10 -4 -10 -6 0 -11 5 -11 10 0 6 2 10 4 10 3 0 8 -4 11 -10z m-391
-175 c-4 -8 -8 -15 -10 -15 -2 0 -4 7 -4 15 0 8 4 15 10 15 5 0 7 -7 4 -15z
m426 -216 c0 -5 -4 -9 -10 -9 -5 0 -10 7 -10 16 0 8 5 12 10 9 6 -3 10 -10 10
-16z m-315 -49 c3 0 5 -5 5 -11 0 -15 -62 -1 -76 17 -6 8 -16 14 -23 14 -6 0
-11 4 -11 10 0 5 23 1 50 -10 28 -11 53 -20 55 -20z m375 30 c0 -5 -2 -10 -4
-10 -3 0 -8 5 -11 10 -3 6 -1 10 4 10 6 0 11 -4 11 -10z m-235 -30 c4 -6 -6
-10 -22 -10 -22 0 -25 2 -13 10 19 12 27 12 35 0z m-65 -40 c-20 -13 -70 -13
-70 0 0 6 19 10 43 10 31 0 38 -3 27 -10z m365 0 c4 -6 -5 -10 -20 -10 -15 0
-24 4 -20 10 3 6 12 10 20 10 8 0 17 -4 20 -10z"/>
<path d="M2043 1599 c-67 -19 -82 -106 -23 -136 27 -14 99 -17 116 -5 39 26
44 93 9 127 -25 26 -49 29 -102 14z m24 -15 c-3 -3 -12 -4 -19 -1 -8 3 -5 6 6
6 11 1 17 -2 13 -5z m8 -44 c-3 -5 -10 -10 -16 -10 -5 0 -9 5 -9 10 0 6 7 10
16 10 8 0 12 -4 9 -10z"/>
<path d="M3870 1500 c-22 -22 -26 -72 -10 -114 10 -27 61 -43 99 -31 42 13 51
107 14 148 -22 23 -78 22 -103 -3z m25 -47 c-7 -30 -13 -39 -19 -32 -8 8 6 59
16 59 6 0 7 -11 3 -27z m65 -27 c0 -3 -4 -8 -10 -11 -5 -3 -10 -1 -10 4 0 6 5
11 10 11 6 0 10 -2 10 -4z m-5 -56 c-3 -5 -10 -10 -16 -10 -5 0 -9 5 -9 10 0
6 7 10 16 10 8 0 12 -4 9 -10z"/>
<path d="M5438 1464 c17 -8 15 -34 -3 -34 -7 0 -18 8 -24 17 -8 14 -12 15 -25
4 -9 -7 -16 -22 -16 -32 0 -28 -15 -31 -65 -9 -66 28 -168 51 -179 39 -13 -12
-53 -12 -61 1 -9 14 -103 -57 -136 -104 -30 -40 -30 -49 -13 -133 13 -65 123
-134 257 -160 74 -15 87 -21 130 -62 62 -60 67 -90 27 -159 -36 -62 -61 -74
-144 -73 -55 1 -66 5 -143 56 -82 55 -123 105 -123 153 0 28 -20 40 -57 35
-39 -6 -42 -14 -50 -122 -7 -102 2 -125 49 -135 26 -5 36 -2 49 15 l16 21 43
-31 c24 -17 47 -31 52 -31 5 0 25 -11 46 -24 42 -28 99 -46 88 -27 -5 8 8 11
43 11 28 0 51 -4 51 -10 0 -5 7 -10 15 -10 8 0 14 6 13 13 -2 7 6 11 19 9 29
-4 111 57 139 104 27 45 38 120 23 165 -7 19 -26 49 -43 68 -36 39 -125 82
-153 75 -31 -9 -103 14 -97 30 3 9 -5 16 -23 21 -82 20 -129 79 -120 152 6 55
24 69 101 77 57 6 66 3 152 -38 51 -25 98 -53 106 -64 18 -26 64 -38 83 -22
11 9 15 32 14 84 -2 98 -10 130 -34 133 -11 2 -14 0 -7 -3z m-298 -64 c0 -5
-6 -10 -14 -10 -8 0 -18 5 -21 10 -3 6 3 10 14 10 12 0 21 -4 21 -10z m-130
-45 c-7 -8 -17 -15 -22 -15 -6 0 -5 7 2 15 7 8 17 15 22 15 6 0 5 -7 -2 -15z
m385 -5 c3 -5 2 -10 -4 -10 -5 0 -13 5 -16 10 -3 6 -2 10 4 10 5 0 13 -4 16
-10z m53 -87 c-10 -2 -26 -2 -35 0 -10 3 -2 5 17 5 19 0 27 -2 18 -5z m-438
-105 c0 -13 -23 -5 -28 10 -2 7 2 10 12 6 9 -3 16 -11 16 -16z m116 -23 c14
-11 15 -14 4 -14 -8 0 -24 6 -34 14 -15 11 -16 15 -5 15 8 0 24 -7 35 -15z
m79 -65 c3 -6 -1 -7 -9 -4 -18 7 -21 14 -7 14 6 0 13 -4 16 -10z m171 -31 c19
-11 34 -27 34 -35 0 -10 -13 -7 -50 14 -27 15 -50 30 -50 35 0 14 33 7 66 -14z
m2 -83 c3 -12 -1 -17 -10 -14 -7 3 -15 13 -16 22 -3 12 1 17 10 14 7 -3 15
-13 16 -22z m-538 -83 c0 -10 -5 -25 -10 -33 -7 -11 -10 -7 -10 18 0 17 5 32
10 32 6 0 10 -8 10 -17z m115 -54 c11 -17 0 -20 -21 -4 -17 13 -17 14 -2 15 9
0 20 -5 23 -11z m432 -76 c-9 -9 -20 -14 -24 -10 -3 4 2 14 13 21 25 19 33 10
11 -11z m-292 -33 c3 -5 -1 -10 -9 -10 -8 0 -18 5 -21 10 -3 6 1 10 9 10 8 0
18 -4 21 -10z"/>
<path d="M3181 1368 c-68 -36 -103 -87 -109 -153 -4 -45 -2 -55 11 -55 9 0 19
5 22 10 3 6 16 10 28 10 18 0 26 11 40 50 21 59 40 70 124 70 84 0 119 -22
155 -95 35 -70 33 -102 -4 -89 -36 13 -168 5 -220 -12 -59 -19 -109 -75 -139
-153 -26 -70 -21 -119 17 -185 27 -46 34 -50 104 -72 41 -13 85 -24 97 -24 13
0 64 16 115 35 51 19 96 35 100 35 5 0 30 -16 57 -35 26 -19 53 -35 58 -35 5
0 25 16 44 36 34 35 34 36 14 52 -11 9 -34 34 -50 56 -29 38 -29 42 -31 165
-1 96 -6 141 -22 189 -25 78 -70 148 -119 187 -36 28 -44 30 -143 33 -95 3
-109 1 -149 -20z m99 -18 c-20 -13 -33 -13 -25 0 3 6 14 10 23 10 15 0 15 -2
2 -10z m-120 -25 c-7 -8 -17 -15 -22 -15 -6 0 -5 7 2 15 7 8 17 15 22 15 6 0
5 -7 -2 -15z m167 -11 c-3 -3 -12 -4 -19 -1 -8 3 -5 6 6 6 11 1 17 -2 13 -5z
m250 -276 c-3 -8 -6 -5 -6 6 -1 11 2 17 5 13 3 -3 4 -12 1 -19z m-151 -15 c71
-19 74 -24 88 -135 7 -56 6 -56 -103 -103 -77 -32 -87 -34 -120 -24 -81 26
-121 76 -121 152 0 51 31 88 95 111 53 19 85 19 161 -1z m164 -105 c0 -5 -4
-8 -10 -8 -5 0 -10 10 -10 23 0 18 2 19 10 7 5 -8 10 -18 10 -22z m60 -144 c0
-8 -5 -12 -10 -9 -6 4 -8 11 -5 16 9 14 15 11 15 -7z m-210 -18 c0 -2 -7 -6
-15 -10 -8 -3 -15 -1 -15 4 0 6 7 10 15 10 8 0 15 -2 15 -4z m195 -16 c3 -5 1
-10 -4 -10 -6 0 -11 5 -11 10 0 6 2 10 4 10 3 0 8 -4 11 -10z"/>
<path d="M4225 1369 c-56 -30 -75 -48 -96 -94 -23 -49 -25 -115 -5 -115 8 0
18 5 21 10 3 6 16 10 28 10 18 0 26 10 39 48 21 58 45 72 126 72 82 0 121 -23
154 -90 32 -64 33 -97 3 -91 -46 8 -183 0 -227 -15 -126 -41 -188 -213 -121
-335 27 -50 31 -53 103 -76 41 -12 85 -23 97 -23 13 0 64 16 115 35 51 19 98
35 105 35 6 0 30 -16 53 -35 23 -19 47 -35 54 -35 7 0 27 16 46 35 l34 35 -33
32 c-56 55 -65 81 -62 199 1 90 -2 119 -24 185 -33 102 -87 181 -144 211 -62
32 -207 33 -266 2z m100 -19 c-3 -5 -10 -10 -16 -10 -5 0 -9 5 -9 10 0 6 7 10
16 10 8 0 12 -4 9 -10z m-125 -30 c0 -5 -4 -10 -10 -10 -5 0 -10 5 -10 10 0 6
5 10 10 10 6 0 10 -4 10 -10z m417 -282 c-3 -8 -6 -5 -6 6 -1 11 2 17 5 13 3
-3 4 -12 1 -19z m-158 -13 c30 -8 60 -20 67 -27 19 -19 38 -147 24 -163 -6 -7
-51 -29 -100 -50 l-90 -38 -57 29 c-64 32 -93 75 -95 141 -1 30 5 42 34 67 62
54 126 66 217 41z m171 -107 c0 -5 -4 -8 -10 -8 -5 0 -10 10 -10 23 0 18 2 19
10 7 5 -8 10 -18 10 -22z m60 -144 c0 -8 -5 -12 -10 -9 -6 4 -8 11 -5 16 9 14
15 11 15 -7z m-200 -18 c0 -2 -9 -6 -20 -9 -11 -3 -20 -1 -20 4 0 5 9 9 20 9
11 0 20 -2 20 -4z m185 -16 c3 -5 1 -10 -4 -10 -6 0 -11 5 -11 10 0 6 2 10 4
10 3 0 8 -4 11 -10z"/>
<path d="M8555 1373 c-40 -21 -84 -62 -101 -95 -19 -37 -19 -118 1 -118 8 0
15 4 15 9 0 5 12 11 26 13 20 2 29 12 40 43 19 58 45 75 113 75 111 0 145 -22
181 -117 11 -29 20 -55 20 -57 0 -2 -44 -3 -98 -3 -158 0 -221 -29 -273 -125
-46 -87 -47 -161 -3 -233 17 -27 35 -50 40 -50 5 0 23 -5 39 -11 93 -35 113
-38 168 -22 28 9 79 26 113 39 l60 23 49 -37 c26 -20 52 -37 57 -37 4 0 25 15
46 34 l37 34 -28 22 c-15 12 -39 41 -53 65 -24 42 -25 49 -19 133 8 97 -6 174
-49 268 -29 63 -90 133 -133 151 -46 19 -209 17 -248 -4z m97 -25 c-9 -9 -15
-9 -24 0 -9 9 -7 12 12 12 19 0 21 -3 12 -12z m-127 -27 c-3 -6 -11 -11 -17
-11 -6 0 -6 6 2 15 14 17 26 13 15 -4z m172 -7 c-3 -3 -12 -4 -19 -1 -8 3 -5
6 6 6 11 1 17 -2 13 -5z m92 -289 c30 -8 58 -18 64 -24 12 -12 36 -147 28
-159 -8 -12 -116 -66 -163 -81 -32 -11 -43 -10 -80 8 -24 11 -50 26 -59 33
-18 15 -49 90 -49 118 0 30 56 87 103 104 54 19 89 19 156 1z m158 -107 c-3
-7 -5 -2 -5 12 0 14 2 19 5 13 2 -7 2 -19 0 -25z m73 -149 c0 -6 -4 -7 -10 -4
-5 3 -10 11 -10 16 0 6 5 7 10 4 6 -3 10 -11 10 -16z m-213 -15 c-3 -3 -12 -4
-19 -1 -8 3 -5 6 6 6 11 1 17 -2 13 -5z"/>
<path d="M2545 1350 c-3 -5 -16 -10 -28 -10 -26 0 -124 -101 -133 -136 -4 -14
-2 -30 5 -37 6 -6 11 -22 11 -35 0 -18 -4 -23 -16 -18 -12 4 -14 1 -10 -14 3
-11 9 -29 12 -40 3 -11 14 -20 24 -20 10 0 21 -7 24 -16 5 -12 2 -15 -13 -11
-17 4 -20 -3 -26 -65 -6 -55 -13 -76 -34 -101 -43 -51 -74 -98 -67 -104 3 -3
8 2 12 11 14 36 21 13 9 -31 -7 -29 -17 -47 -25 -45 -9 2 -10 -4 -6 -20 4 -13
7 -30 7 -38 0 -8 7 -38 15 -67 28 -94 127 -165 257 -184 81 -11 130 -11 122 0
-3 5 -1 12 4 15 5 4 12 2 16 -4 3 -5 24 -10 46 -10 25 0 38 4 34 10 -4 6 9 17
27 24 34 15 53 12 28 -4 -8 -6 -10 -10 -5 -10 11 0 103 67 128 92 30 31 57 78
57 100 0 77 -61 192 -128 241 -36 26 -47 29 -146 32 -107 4 -131 9 -121 25 10
17 -35 21 -95 9 -33 -6 -63 -9 -67 -6 -3 4 -2 26 3 49 l9 43 91 0 91 0 72 49
c62 43 73 56 91 103 11 30 20 58 20 63 0 4 16 29 35 54 19 26 35 49 35 52 0 8
-43 43 -53 44 -4 0 -20 -9 -35 -19 l-27 -20 -85 29 c-86 30 -154 38 -165 20z
m25 -40 c-19 -13 -30 -13 -30 0 0 6 10 10 23 10 18 0 19 -2 7 -10z m102 -32
c50 -15 81 -57 76 -103 -2 -18 0 -31 4 -29 4 3 8 -8 8 -24 0 -27 -32 -62 -57
-62 -4 0 -1 4 7 10 8 5 11 12 7 16 -9 9 -47 -25 -44 -39 1 -6 -27 -11 -68 -13
-85 -3 -118 13 -134 66 -24 80 -10 121 57 165 41 27 85 31 144 13z m205 -15
c-9 -9 -20 -13 -24 -9 -4 4 1 14 11 22 25 18 35 8 13 -13z m-377 3 c0 -3 -4
-8 -10 -11 -5 -3 -10 -1 -10 4 0 6 5 11 10 11 6 0 10 -2 10 -4z m280 -16 c0
-5 -2 -10 -4 -10 -3 0 -8 5 -11 10 -3 6 -1 10 4 10 6 0 11 -4 11 -10z m-320
-143 c0 -5 -4 -5 -10 -2 -5 3 -10 14 -10 23 0 15 2 15 10 2 5 -8 10 -19 10
-23z m5 -77 c3 -5 1 -10 -4 -10 -6 0 -11 5 -11 10 0 6 2 10 4 10 3 0 8 -4 11
-10z m45 -24 c0 -11 -19 -15 -25 -6 -3 5 1 10 9 10 9 0 16 -2 16 -4z m90 -5
c10 -1 11 -4 3 -12 -14 -14 -65 -8 -70 8 -3 8 5 11 24 9 15 -2 35 -4 43 -5z
m-155 -20 c3 -5 1 -12 -5 -16 -5 -3 -10 1 -10 9 0 18 6 21 15 7z m73 -138 c2
-8 -6 -13 -22 -13 -25 0 -33 10 -19 24 10 10 36 3 41 -11z m-88 -23 c0 -5 -4
-10 -10 -10 -5 0 -10 5 -10 10 0 6 5 10 10 10 6 0 10 -4 10 -10z m-40 -14 c0
-15 -24 -28 -34 -19 -7 7 13 33 25 33 5 0 9 -6 9 -14z m475 4 c3 -5 -1 -10 -9
-10 -9 0 -16 5 -16 10 0 6 4 10 9 10 6 0 13 -4 16 -10z m-60 -18 c28 -10 51
-23 51 -32 3 -32 5 -35 13 -22 11 18 45 -14 36 -36 -3 -8 -1 -20 5 -27 25 -30
29 -73 10 -110 -13 -26 -14 -33 -4 -24 18 14 29 6 20 -16 -3 -9 -14 -15 -24
-13 -10 1 -31 -7 -46 -20 -55 -43 -123 -55 -244 -43 -177 18 -223 54 -236 187
-5 55 -3 65 22 103 14 22 34 43 42 46 9 3 68 6 132 7 65 1 112 6 105 10 -23
15 68 7 118 -10z m99 -8 c9 -3 16 -13 16 -20 0 -12 -4 -12 -20 -4 -11 6 -20
15 -20 20 0 12 3 12 24 4z m-544 -53 c0 -6 -4 -13 -10 -16 -5 -3 -10 1 -10 9
0 9 5 16 10 16 6 0 10 -4 10 -9z m636 -138 c-11 -11 -19 6 -11 24 8 17 8 17
12 0 3 -10 2 -21 -1 -24z m-616 -5 c-1 -26 -3 -30 -10 -16 -6 9 -7 23 -4 32 9
25 14 19 14 -16z m425 -160 c-35 -18 -51 -20 -145 -15 -58 3 -116 10 -130 16
-19 8 -2 9 70 4 108 -8 118 -8 180 5 67 14 69 13 25 -10z m-35 -38 c0 -5 -5
-10 -11 -10 -5 0 -7 5 -4 10 3 6 8 10 11 10 2 0 4 -4 4 -10z"/>
<path d="M1916 1335 c-14 -39 -7 -64 22 -71 77 -17 92 -25 87 -47 -2 -12 -7
-102 -11 -200 -7 -197 -1 -182 -79 -189 -26 -3 -30 -7 -30 -33 0 -28 3 -30 42
-36 24 -3 46 -8 49 -12 6 -6 -42 -11 -84 -10 -8 1 -12 -8 -10 -20 4 -29 55
-38 203 -35 l120 3 3 40 c4 44 -14 116 -32 127 -6 4 -24 8 -39 8 l-28 0 8 143
c10 176 10 306 1 330 -6 14 -21 17 -93 17 -55 0 -84 -4 -80 -10 8 -13 -18 -13
-32 1 -7 7 -12 6 -17 -6z m119 -25 c4 -6 -14 -10 -47 -9 -49 2 -50 2 -18 9 52
11 58 11 65 0z m95 -10 c0 -5 -9 -10 -19 -10 -11 0 -23 5 -26 10 -4 6 5 10 19
10 14 0 26 -4 26 -10z m-22 -65 c0 -14 -4 -25 -9 -25 -5 0 -9 -7 -9 -16 0 -8
-4 -12 -10 -9 -6 3 -10 -4 -10 -17 -1 -67 -20 -212 -29 -221 -8 -8 -11 21 -11
98 0 141 8 186 32 193 10 2 18 8 18 13 0 5 6 9 14 9 8 0 14 -10 14 -25z m-17
-266 l-10 -24 0 26 c-1 14 2 29 6 33 12 12 14 -9 4 -35z m-83 -176 c13 -3 19
-9 13 -12 -14 -9 -91 -1 -91 10 0 10 44 12 78 2z m202 -2 c0 -13 -29 -35 -37
-28 -7 8 15 37 28 37 5 0 9 -4 9 -9z m-117 -48 c-7 -2 -21 -2 -30 0 -10 3 -4
5 12 5 17 0 24 -2 18 -5z"/>
<path d="M930 1332 c0 -6 -16 -8 -37 -6 -49 6 -66 -6 -58 -38 6 -23 10 -25 51
-20 29 3 44 1 44 -7 0 -15 -44 -25 -76 -17 -19 5 -25 3 -22 -6 3 -7 24 -14 50
-16 26 -2 48 -8 50 -15 2 -7 2 -97 0 -200 l-4 -189 -30 -13 c-21 -8 -27 -15
-18 -20 9 -6 9 -9 -1 -16 -9 -5 -16 -3 -19 5 -4 10 -12 11 -27 5 -25 -9 -28
-24 -14 -62 9 -24 15 -25 115 -32 130 -9 152 -4 158 33 6 45 -4 68 -32 68
l-25 0 -3 196 -2 197 27 18 c41 27 95 22 145 -12 l42 -30 -2 -165 c-1 -91 -2
-168 -2 -172 0 -4 -9 -10 -20 -13 -20 -6 -27 -39 -12 -61 4 -6 37 -14 74 -18
53 -5 69 -3 82 10 22 21 20 57 -4 79 -18 16 -20 31 -20 150 0 112 3 136 18
154 33 42 143 48 178 10 9 -11 25 -19 34 -19 29 0 51 -34 52 -84 0 -41 3 -46
19 -41 16 5 19 1 19 -24 0 -36 -14 -41 -26 -8 -5 15 -9 0 -11 -53 -4 -107 -8
-116 -44 -124 -30 -6 -31 -7 -24 -43 4 -21 11 -44 17 -50 11 -14 150 -18 207
-7 29 6 31 9 31 53 0 57 -7 68 -45 73 l-30 3 -11 111 c-21 200 -40 258 -103
317 -20 18 -40 27 -63 27 -38 0 -52 8 -61 33 -9 25 -24 21 -57 -14 -19 -21
-34 -30 -45 -25 -9 3 -29 -1 -45 -9 -43 -22 -58 -19 -97 25 -20 21 -50 44 -67
49 -47 15 -256 25 -256 13z m179 -16 c-10 -9 -79 -14 -79 -5 0 5 19 9 42 9 23
0 39 -2 37 -4z m-209 -26 c0 -5 -10 -10 -22 -9 -22 0 -22 1 -3 9 11 5 21 9 23
9 1 1 2 -3 2 -9z m289 -13 c6 -8 8 -16 5 -19 -5 -6 -64 20 -64 28 0 10 49 3
59 -9z m-76 -4 c-7 -2 -21 -2 -30 0 -10 3 -4 5 12 5 17 0 24 -2 18 -5z m36
-24 c17 -6 31 -15 31 -21 0 -6 -7 -7 -16 -4 -9 3 -27 9 -40 12 -13 3 -21 10
-18 15 7 11 5 11 43 -2z m99 -25 c2 -16 -1 -23 -8 -19 -5 3 -10 18 -10 32 0
32 13 22 18 -13z m-264 -81 c-6 -51 -9 -62 -15 -45 -11 30 1 150 13 128 5 -8
6 -46 2 -83z m403 91 c-3 -3 -12 -4 -19 -1 -8 3 -5 6 6 6 11 1 17 -2 13 -5z
m143 -4 c0 -5 -13 -10 -30 -10 -16 0 -30 5 -30 10 0 6 14 10 30 10 17 0 30 -4
30 -10z m-190 -19 c0 -12 -28 -22 -34 -12 -3 5 -3 11 1 15 9 9 33 7 33 -3z
m288 -37 c-10 -10 -28 6 -28 24 0 15 1 15 17 -1 9 -9 14 -19 11 -23z m-53 -4
c17 -19 17 -20 -1 -20 -27 1 -59 26 -42 33 21 9 24 8 43 -13z m-568 -42 c-2
-13 -4 -5 -4 17 -1 22 1 32 4 23 2 -10 2 -28 0 -40z m633 -18 c0 -5 -2 -10 -4
-10 -3 0 -8 5 -11 10 -3 6 -1 10 4 10 6 0 11 -4 11 -10z m30 -40 c0 -5 -4 -10
-10 -10 -5 0 -10 5 -10 10 0 6 5 10 10 10 6 0 10 -4 10 -10z m-400 -134 c-7
-7 -10 1 -9 25 0 32 1 33 10 10 6 -16 6 -28 -1 -35z m-300 -116 c0 -5 -7 -10
-15 -10 -8 0 -15 5 -15 10 0 6 7 10 15 10 8 0 15 -4 15 -10z m40 -21 c0 -5 -4
-9 -10 -9 -5 0 -10 7 -10 16 0 8 5 12 10 9 6 -3 10 -10 10 -16z m-160 -64 c0
-19 -2 -35 -5 -35 -10 0 -24 40 -19 54 11 28 24 17 24 -19z m205 6 c0 -13 -13
-14 -135 -12 -16 1 -30 5 -30 9 0 4 32 6 71 4 55 -3 70 -1 64 8 -5 8 -1 11 11
8 11 -2 19 -9 19 -17z m648 12 c-7 -2 -21 -2 -30 0 -10 3 -4 5 12 5 17 0 24
-2 18 -5z m-60 -20 c-7 -2 -21 -2 -30 0 -10 3 -4 5 12 5 17 0 24 -2 18 -5z"/>
<path d="M6902 1321 c-39 -10 -56 -11 -61 -3 -4 6 -17 9 -30 5 -15 -4 -19 -8
-11 -13 7 -4 9 -13 6 -19 -10 -16 -24 -13 -28 6 -4 23 -72 -72 -98 -137 -16
-40 -17 -48 -5 -43 12 4 13 1 6 -18 -5 -13 -14 -23 -19 -22 -6 2 -14 -18 -18
-43 -15 -102 25 -252 85 -313 53 -56 201 -98 241 -70 12 8 9 9 -12 5 -15 -3
-29 -2 -32 3 -3 4 15 11 41 15 63 8 75 8 68 -5 -10 -15 59 16 108 50 41 28 44
28 69 13 22 -13 29 -13 42 -3 25 21 19 45 -24 100 -55 70 -74 78 -105 47 -20
-20 -23 -31 -18 -60 5 -32 3 -36 -15 -36 -12 0 -25 -6 -29 -14 -14 -24 -77
-56 -109 -56 -63 0 -98 14 -139 54 -55 56 -83 119 -87 197 l-3 64 227 -4 227
-4 11 29 c14 36 5 84 -27 148 -27 54 -49 77 -103 105 -62 33 -100 38 -158 22z
m85 -27 c-3 -3 -12 -4 -19 -1 -8 3 -5 6 6 6 11 1 17 -2 13 -5z m-42 -14 c4 -6
-7 -10 -24 -10 -17 0 -31 5 -31 10 0 6 11 10 24 10 14 0 28 -4 31 -10z m77
-13 c7 -7 22 -17 33 -21 15 -6 16 -10 6 -14 -16 -5 -81 26 -81 40 0 13 27 10
42 -5z m-162 -7 c0 -5 -10 -10 -22 -10 -19 0 -20 2 -8 10 19 13 30 13 30 0z
m150 -25 c42 -22 90 -79 93 -111 2 -33 5 -32 -133 -20 -50 4 -68 3 -55 -3 15
-7 6 -10 -37 -10 -57 -1 -85 18 -30 20 15 1 -1 6 -35 13 -74 15 -78 18 -64 45
40 73 178 108 261 66z m80 -25 c0 -5 -4 -10 -10 -10 -5 0 -10 5 -10 10 0 6 5
10 10 10 6 0 10 -4 10 -10z m34 -36 c9 -22 -3 -32 -14 -14 -12 19 -12 30 -1
30 5 0 12 -7 15 -16z m-374 -54 c0 -5 -5 -10 -11 -10 -5 0 -7 5 -4 10 3 6 8
10 11 10 2 0 4 -4 4 -10z m138 -67 c-10 -2 -28 -2 -40 0 -13 2 -5 4 17 4 22 1
32 -1 23 -4z m97 -2 c3 -5 1 -12 -4 -15 -13 -8 -71 5 -71 15 0 12 67 11 75 0z
m95 -5 c0 -3 -4 -8 -10 -11 -5 -3 -10 -1 -10 4 0 6 5 11 10 11 6 0 10 -2 10
-4z m-410 -78 c-1 -28 -2 -30 -11 -15 -6 10 -8 25 -5 33 9 24 16 16 16 -18z
m567 -190 c-3 -8 -6 -5 -6 6 -1 11 2 17 5 13 3 -3 4 -12 1 -19z m-467 -62 c0
-3 -4 -8 -10 -11 -5 -3 -10 -1 -10 4 0 6 5 11 10 11 6 0 10 -2 10 -4z"/>
<path d="M7783 1328 c1 -7 -6 -12 -15 -12 -27 2 -25 -62 2 -76 19 -10 20 -21
20 -302 0 -160 2 -289 4 -287 2 2 7 130 10 284 3 154 5 286 6 293 0 6 5 12 11
12 7 0 9 -96 7 -307 -2 -201 -6 -306 -13 -303 -6 3 -12 -35 -15 -102 -4 -94
-8 -109 -27 -126 -13 -11 -23 -29 -23 -41 0 -27 37 -64 53 -54 7 4 42 6 80 5
64 -3 67 -2 67 20 0 13 -9 37 -19 54 -16 27 -31 147 -36 299 0 13 85 7 102 -7
26 -21 175 17 228 59 20 15 56 57 81 93 49 72 71 159 59 235 -7 46 -48 112
-76 120 -11 4 -19 12 -19 18 -1 19 -72 69 -81 56 -4 -7 -13 -4 -27 11 -11 12
-26 19 -32 15 -6 -4 -17 1 -24 10 -10 15 -18 15 -52 6 -70 -19 -164 -11 -164
14 0 17 -23 25 -71 25 -26 0 -38 -4 -36 -12z m7 -48 c0 -5 -4 -10 -10 -10 -5
0 -10 5 -10 10 0 6 5 10 10 10 6 0 10 -4 10 -10z m290 -9 c0 -5 8 -12 18 -14
11 -3 9 -5 -8 -6 -14 0 -36 2 -49 6 -23 6 -23 7 -5 14 27 11 44 11 44 0z m50
-61 c0 -5 -13 -10 -29 -10 -48 0 -45 -17 4 -24 32 -5 51 -15 70 -38 46 -55 58
-88 59 -169 1 -67 -2 -79 -25 -110 -29 -38 -140 -99 -179 -99 -14 0 -50 15
-80 33 l-55 32 1 127 c1 70 4 137 8 150 7 26 77 78 105 78 11 0 21 5 23 11 2
6 19 14 38 19 49 11 60 11 60 0z m27 -26 c-3 -3 -12 -4 -19 -1 -8 3 -5 6 6 6
11 1 17 -2 13 -5z m61 -32 c2 -7 -2 -10 -12 -6 -9 3 -16 11 -16 16 0 13 23 5
28 -10z m32 -63 c0 -11 -4 -17 -10 -14 -5 3 -10 13 -10 21 0 8 5 14 10 14 6 0
10 -9 10 -21z m68 -175 l-12 -29 -4 32 c-2 18 3 42 10 55 l13 23 3 -26 c2 -14
-3 -38 -10 -55z m-52 9 c-10 -10 -19 5 -10 18 6 11 8 11 12 0 2 -7 1 -15 -2
-18z m-165 -180 c-45 -19 -65 -9 -21 10 19 8 39 13 45 9 5 -3 -6 -12 -24 -19z
m-123 -3 c25 0 33 -3 25 -11 -15 -15 -85 -7 -91 10 -3 10 0 12 12 8 10 -4 34
-7 54 -7z m-148 -159 c0 -17 -4 -33 -10 -36 -6 -4 -10 8 -10 29 0 20 5 36 10
36 6 0 10 -13 10 -29z m10 -98 c0 -7 -4 -13 -10 -13 -5 0 -10 12 -10 28 0 21
2 24 10 12 5 -8 10 -21 10 -27z m-37 -140 c-7 -2 -19 -2 -25 0 -7 3 -2 5 12 5
14 0 19 -2 13 -5z"/>
<path d="M9112 1316 c-7 -15 -12 -47 -12 -71 l0 -45 45 0 c57 0 57 1 52 -218
-3 -154 -6 -174 -22 -186 -16 -12 -18 -20 -9 -62 l9 -49 83 -3 c88 -3 87 -3
96 51 4 24 1 30 -25 39 -27 9 -28 12 -13 23 16 11 15 12 -5 18 -20 5 -21 11
-21 106 0 99 0 101 33 138 115 134 227 150 283 40 26 -50 7 -232 -35 -340 -6
-16 -11 -44 -11 -64 0 -31 3 -35 20 -30 11 3 27 -1 34 -9 11 -11 32 -12 93 -8
97 8 123 22 123 68 0 34 0 34 -30 23 -31 -12 -54 -2 -30 13 12 8 11 10 -6 10
-21 0 -21 3 -17 147 5 166 -4 219 -47 287 -31 48 -111 108 -118 87 -5 -16 -58
-14 -76 4 -19 19 -45 19 -52 0 -4 -10 -18 -15 -38 -14 -37 2 -89 -17 -81 -30
3 -5 1 -13 -5 -16 -18 -11 -50 35 -50 72 0 31 -2 33 -34 33 -18 0 -53 3 -78 6
-40 6 -45 4 -56 -20z m118 -5 c0 -13 -26 -21 -66 -21 -46 0 -43 18 4 23 20 2
43 4 50 5 6 1 12 -2 12 -7z m-60 -35 c0 -3 -4 -8 -10 -11 -5 -3 -10 -1 -10 4
0 6 5 11 10 11 6 0 10 -2 10 -4z m-35 -16 c3 -5 -1 -10 -10 -10 -9 0 -13 5
-10 10 3 6 8 10 10 10 2 0 7 -4 10 -10z m85 -25 c0 -14 -4 -25 -10 -25 -5 0
-10 7 -10 15 0 8 -7 15 -16 15 -8 0 -12 5 -9 10 3 6 15 10 26 10 14 0 19 -7
19 -25z m370 -1 c0 -8 -4 -12 -10 -9 -5 3 -10 10 -10 16 0 5 5 9 10 9 6 0 10
-7 10 -16z m-322 -16 c7 -13 12 -32 11 -43 0 -11 3 -32 7 -47 7 -31 -2 -78
-15 -78 -9 0 -18 40 -27 133 -7 60 4 74 24 35z m222 12 c0 -5 -5 -10 -11 -10
-5 0 -7 5 -4 10 3 6 8 10 11 10 2 0 4 -4 4 -10z m-115 -47 c-34 -25 -75 -44
-75 -34 0 11 83 61 90 54 3 -2 -4 -11 -15 -20z m269 -25 c-3 -5 -12 -1 -19 9
-7 10 -11 22 -8 27 4 5 12 1 19 -9 7 -10 11 -22 8 -27z m-69 22 c3 -5 -3 -10
-15 -10 -12 0 -18 5 -15 10 3 6 10 10 15 10 5 0 12 -4 15 -10z m-145 -10 c0
-5 -5 -10 -11 -10 -5 0 -7 5 -4 10 3 6 8 10 11 10 2 0 4 -4 4 -10z m-40 -9 c0
-6 -4 -13 -10 -16 -5 -3 -10 1 -10 9 0 9 5 16 10 16 6 0 10 -4 10 -9z m270
-69 c0 -7 -4 -10 -10 -7 -5 3 -10 16 -10 28 0 18 2 19 10 7 5 -8 10 -21 10
-28z m50 1 c-1 -24 -2 -26 -11 -10 -5 9 -7 22 -4 27 10 17 15 11 15 -17z m-60
-248 c0 -8 -4 -15 -10 -15 -5 0 -10 7 -10 15 0 8 5 15 10 15 6 0 10 -7 10 -15z
m80 -14 c0 -11 -4 -23 -10 -26 -6 -4 -10 5 -10 19 0 14 5 26 10 26 6 0 10 -9
10 -19z m-535 -59 c0 -18 -20 -15 -23 4 -3 10 1 15 10 12 7 -3 13 -10 13 -16z
m131 -49 c-10 -10 -85 -12 -92 -2 -3 5 18 9 47 9 29 0 49 -3 45 -7z m484 -13
c0 -5 -9 -10 -20 -10 -11 0 -20 5 -20 10 0 6 9 10 20 10 11 0 20 -4 20 -10z
m-116 -19 c6 -10 -63 -23 -77 -14 -5 3 -3 9 4 14 18 11 66 11 73 0z"/>
<path d="M9530 1300 c20 -13 43 -13 35 0 -3 6 -16 10 -28 10 -18 0 -19 -2 -7
-10z"/>
<path d="M3776 1204 c-3 -9 -6 -35 -6 -59 0 -49 21 -69 71 -67 22 0 29 -5 33
-26 10 -46 25 -251 27 -363 2 -96 0 -109 -20 -135 -35 -45 -57 -56 -96 -48
-38 7 -59 30 -70 76 -5 17 -12 25 -21 21 -9 -3 -14 2 -14 17 0 19 2 20 15 10
12 -10 15 -10 15 4 0 23 -32 24 -82 4 -25 -9 -28 -16 -28 -56 0 -26 7 -66 16
-89 15 -38 25 -47 81 -75 90 -44 149 -48 208 -14 103 61 132 144 119 342 -5
71 -8 142 -6 157 1 15 -4 41 -13 56 -11 21 -13 46 -8 95 6 64 -8 126 -28 126
-5 0 -18 9 -29 20 -26 26 -154 30 -164 4z m114 -41 c-65 -21 -70 -22 -70 -7 0
10 12 14 43 13 23 0 35 -3 27 -6z m39 -500 c-1 -72 -3 -82 -10 -53 -8 34 -10
118 -2 133 10 18 13 1 12 -80z m-37 -155 c-6 -6 -15 -8 -19 -4 -4 4 -1 11 7
16 19 12 27 3 12 -12z m-102 -28 c0 -5 -4 -10 -9 -10 -6 0 -13 5 -16 10 -3 6
1 10 9 10 9 0 16 -4 16 -10z m110 1 c0 -10 -30 -24 -37 -17 -3 3 -2 9 2 15 8
13 35 15 35 2z m70 0 c0 -6 -4 -13 -10 -16 -5 -3 -10 1 -10 9 0 9 5 16 10 16
6 0 10 -4 10 -9z m-254 -42 c3 -5 -4 -9 -14 -9 -11 0 -22 6 -25 14 -4 10 0 12
14 9 11 -3 22 -9 25 -14z m131 15 c-3 -3 -12 -4 -19 -1 -8 3 -5 6 6 6 11 1 17
-2 13 -5z m43 -34 c0 -5 -9 -14 -19 -20 -25 -13 -38 5 -14 19 23 13 33 14 33
1z"/>
<path d="M2758 873 c6 -2 18 -2 25 0 6 3 1 5 -13 5 -14 0 -19 -2 -12 -5z"/>
</g>
</svg>
